<?xml version="1.0" encoding="utf-8"?>
<!-- Generator: Adobe Illustrator 23.0.3, SVG Export Plug-In . SVG Version: 6.00 Build 0)  -->
<svg version="1.1" id="Laag_1" xmlns="http://www.w3.org/2000/svg" xmlns:xlink="http://www.w3.org/1999/xlink" x="0px" y="0px"
	 viewBox="0 0 600.09 269.29" style="enable-background:new 0 0 600.09 269.29;" xml:space="preserve">
<style type="text/css">
	.st0{fill:none;stroke:#020203;stroke-width:6.5188;}
	.st1{fill:none;}
	.st2{fill:#FFFFFF;}
	.st3{font-family:'Angelface';}
	.st4{font-size:236.8272px;}
	.st5{font-size:111.4909px;}
	.st6{letter-spacing:-6;}
</style>
<path class="st0" d="M19.51,127.01c4.73-15,15.66-27.38,23.68-41.23c5.83-4.37,10.2-10.2,16.03-15.3
	c8.74-7.29,18.95-13.85,29.15-18.22c24.05-10.2,51.01-10.93,76.51-2.91c16.03,5.1,30.61,11.66,45.18,19.67
	c33.52,18.95,65.58,37.16,102.75,47.37c68.5,19.67,138.45,10.93,201.85-17.49c24.05-11.66,47.37-25.5,61.94-49.55
	c6.56-10.93,11.66-23.32,7.29-34.98c-2.91-6.56-8.74-10.2-16.03-11.66c-13.85-1.46-26.96,0.73-39.35,7.29
	c-1.46,0.73-2.19,0-3.64,0.73c-43.72,22.59-75.78,58.3-108.58,94c-1.46,1.46-3.64,2.91-5.1,5.1c-0.73,0.73-2.19,1.46-2.91,2.19
	c-1.46,2.19-2.91,3.64-4.37,5.83c-0.73,0.73-2.19,1.46-2.91,2.19c-1.46,2.19-2.91,3.64-4.37,5.83
	c-20.4,21.13-37.89,42.26-59.75,61.94c-10.2,8.74-18.95,18.22-29.88,25.5c-26.23,24.78-59.75,43.72-96.92,41.54
	c-7.29-0.73-13.85-3.64-19.67-8.74c-5.83-10.93,0.73-23.32,9.47-30.61c14.57-11.66,31.33-16.03,48.82-18.95
	c27.69-3.64,53.92-2.19,81.61,1.46c51.01,6.56,99.83,17.49,150.84,12.39c5.83-0.73,11.66-1.46,17.49-2.19
	c32.79-5.83,62.67-13.85,92.54-25.5"/>
<rect x="7.31" y="57.98" class="st1" width="542.2" height="171.71"/>
<text transform="matrix(1 0 0 1 7.3117 179.1782)" class="st2 st3 st4">Cavalli</text>
<rect x="357.65" y="180.15" class="st1" width="205.53" height="87.28"/>
<text transform="matrix(1 0 0 1 357.6545 237.207)"><tspan x="0" y="0" class="st2 st3 st5 st6">A</tspan><tspan x="80.61" y="2" class="st2 st3 st5">rt</tspan></text>
</svg>
